STARTFONT 2.1
FONT Nexus-koi
SIZE 10 75 75
FONTBOUNDINGBOX 5 10 0 0
STARTPROPERTIES 23
FONTNAME_REGISTRY ""
FOUNDRY "Misc"
FAMILY_NAME "Nexus"
WEIGHT_NAME "Medium"
SLANT "R"
SETWIDTH_NAME "Normal"
ADD_STYLE_NAME ""
PIXEL_SIZE 10
POINT_SIZE 100
RESOLUTION_X 75
RESOLUTION_Y 75
SPACING "C"
AVERAGE_WIDTH 60
CHARSET_REGISTRY "ISO8859"
CHARSET_ENCODING "1"
COPYRIGHT "Bugger off with the Copyright"
WEIGHT 10
RESOLUTION 103
X_HEIGHT 10
QUAD_WIDTH 5
FONT_ASCENT 10
FONT_DESCENT 0
_XMBDFED_INFO "Edited with xmbdfed 2.0."
ENDPROPERTIES
CHARS 256
STARTCHAR char0
ENCODING 0
SWIDTH 479 0
DWIDTH 5 0
BBX 5 10 0 0
BITMAP
00
00
00
00
00
00
00
00
00
00
ENDCHAR
STARTCHAR char1
ENCODING 1
SWIDTH 479 0
DWIDTH 5 0
BBX 5 10 0 0
BITMAP
00
70
88
D8
88
F8
A8
88
70
00
ENDCHAR
STARTCHAR char2
ENCODING 2
SWIDTH 479 0
DWIDTH 5 0
BBX 5 10 0 0
BITMAP
00
70
F8
A8
F8
88
D8
F8
70
00
ENDCHAR
STARTCHAR char3
ENCODING 3
SWIDTH 479 0
DWIDTH 5 0
BBX 5 10 0 0
BITMAP
00
00
00
D8
F8
F8
70
20
00
00
ENDCHAR
STARTCHAR char4
ENCODING 4
SWIDTH 479 0
DWIDTH 5 0
BBX 5 10 0 0
BITMAP
00
00
00
20
70
F8
70
20
00
00
ENDCHAR
STARTCHAR char5
ENCODING 5
SWIDTH 479 0
DWIDTH 5 0
BBX 5 10 0 0
BITMAP
00
70
70
F8
F8
A8
20
70
00
00
ENDCHAR
STARTCHAR char6
ENCODING 6
SWIDTH 479 0
DWIDTH 5 0
BBX 5 10 0 0
BITMAP
00
00
20
70
F8
F8
A8
70
00
00
ENDCHAR
STARTCHAR char7
ENCODING 7
SWIDTH 479 0
DWIDTH 5 0
BBX 5 10 0 0
BITMAP
00
00
00
00
00
00
00
00
00
00
ENDCHAR
STARTCHAR char8
ENCODING 8
SWIDTH 479 0
DWIDTH 5 0
BBX 5 10 0 0
BITMAP
00
00
00
00
00
00
00
00
00
00
ENDCHAR
STARTCHAR char9
ENCODING 9
SWIDTH 479 0
DWIDTH 5 0
BBX 5 10 0 0
BITMAP
00
00
00
00
00
00
00
00
00
00
ENDCHAR
STARTCHAR char10
ENCODING 10
SWIDTH 479 0
DWIDTH 5 0
BBX 5 10 0 0
BITMAP
00
00
00
00
00
00
00
00
00
00
ENDCHAR
STARTCHAR char192
ENCODING 11
SWIDTH 479 0
DWIDTH 5 0
BBX 5 10 0 0
BITMAP
20
20
20
20
20
E0
00
00
00
00
ENDCHAR
STARTCHAR char170
ENCODING 12
SWIDTH 479 0
DWIDTH 5 0
BBX 5 10 0 0
BITMAP
00
00
00
00
00
E0
20
20
20
20
ENDCHAR
STARTCHAR char169
ENCODING 13
SWIDTH 479 0
DWIDTH 5 0
BBX 5 10 0 0
BITMAP
00
00
00
00
00
38
20
20
20
20
ENDCHAR
STARTCHAR char192
ENCODING 14
SWIDTH 479 0
DWIDTH 5 0
BBX 5 10 0 0
BITMAP
20
20
20
20
20
38
00
00
00
00
ENDCHAR
STARTCHAR char197
ENCODING 15
SWIDTH 479 0
DWIDTH 5 0
BBX 5 10 0 0
BITMAP
20
20
20
20
20
F8
20
20
20
20
ENDCHAR
STARTCHAR char195
ENCODING 16
SWIDTH 479 0
DWIDTH 5 0
BBX 5 10 0 0
BITMAP
F8
00
00
00
00
00
00
00
00
00
ENDCHAR
STARTCHAR char195
ENCODING 17
SWIDTH 479 0
DWIDTH 5 0
BBX 5 10 0 0
BITMAP
00
00
00
F8
00
00
00
00
00
00
ENDCHAR
STARTCHAR char195
ENCODING 18
SWIDTH 479 0
DWIDTH 5 0
BBX 5 10 0 0
BITMAP
00
00
00
00
00
F8
00
00
00
00
ENDCHAR
STARTCHAR char195
ENCODING 19
SWIDTH 479 0
DWIDTH 5 0
BBX 5 10 0 0
BITMAP
00
00
00
00
00
00
00
F8
00
00
ENDCHAR
STARTCHAR char195
ENCODING 20
SWIDTH 479 0
DWIDTH 5 0
BBX 5 10 0 0
BITMAP
00
00
00
00
00
00
00
00
00
F8
ENDCHAR
STARTCHAR char195
ENCODING 21
SWIDTH 479 0
DWIDTH 5 0
BBX 5 10 0 0
BITMAP
20
20
20
20
20
38
20
20
20
20
ENDCHAR
STARTCHAR char180
ENCODING 22
SWIDTH 479 0
DWIDTH 5 0
BBX 5 10 0 0
BITMAP
20
20
20
20
20
E0
20
20
20
20
ENDCHAR
STARTCHAR char180
ENCODING 23
SWIDTH 479 0
DWIDTH 5 0
BBX 5 10 0 0
BITMAP
20
20
20
20
20
F8
00
00
00
00
ENDCHAR
STARTCHAR char180
ENCODING 24
SWIDTH 479 0
DWIDTH 5 0
BBX 5 10 0 0
BITMAP
00
00
00
00
00
F8
20
20
20
20
ENDCHAR
STARTCHAR char180
ENCODING 25
SWIDTH 479 0
DWIDTH 5 0
BBX 5 10 0 0
BITMAP
20
20
20
20
20
20
20
20
20
20
ENDCHAR
STARTCHAR char26
ENCODING 26
SWIDTH 479 0
DWIDTH 5 0
BBX 5 10 0 0
BITMAP
00
00
00
20
20
70
20
00
00
00
ENDCHAR
STARTCHAR char27
ENCODING 27
SWIDTH 479 0
DWIDTH 5 0
BBX 5 10 0 0
BITMAP
00
00
00
00
00
00
00
00
00
00
ENDCHAR
STARTCHAR char28
ENCODING 28
SWIDTH 479 0
DWIDTH 5 0
BBX 5 10 0 0
BITMAP
00
00
00
80
80
F0
00
00
00
00
ENDCHAR
STARTCHAR char29
ENCODING 29
SWIDTH 479 0
DWIDTH 5 0
BBX 5 10 0 0
BITMAP
00
00
00
50
F8
50
00
00
00
00
ENDCHAR
STARTCHAR char30
ENCODING 30
SWIDTH 479 0
DWIDTH 5 0
BBX 5 10 0 0
BITMAP
00
00
00
20
70
F8
00
00
00
00
ENDCHAR
STARTCHAR char31
ENCODING 31
SWIDTH 479 0
DWIDTH 5 0
BBX 5 10 0 0
BITMAP
00
00
00
F8
70
20
00
00
00
00
ENDCHAR
STARTCHAR char32
ENCODING 32
SWIDTH 479 0
DWIDTH 5 0
BBX 5 10 0 0
BITMAP
00
00
00
00
00
00
00
00
00
00
ENDCHAR
STARTCHAR char33
ENCODING 33
SWIDTH 479 0
DWIDTH 5 0
BBX 5 10 0 0
BITMAP
40
40
40
40
40
00
40
40
00
00
ENDCHAR
STARTCHAR char34
ENCODING 34
SWIDTH 479 0
DWIDTH 5 0
BBX 5 10 0 0
BITMAP
50
50
00
00
00
00
00
00
00
00
ENDCHAR
STARTCHAR char35
ENCODING 35
SWIDTH 479 0
DWIDTH 5 0
BBX 5 10 0 0
BITMAP
50
50
50
F8
50
F8
50
50
50
00
ENDCHAR
STARTCHAR char36
ENCODING 36
SWIDTH 479 0
DWIDTH 5 0
BBX 5 10 0 0
BITMAP
20
20
70
A0
60
30
E0
20
20
00
ENDCHAR
STARTCHAR char37
ENCODING 37
SWIDTH 479 0
DWIDTH 5 0
BBX 5 10 0 0
BITMAP
00
00
90
90
20
40
90
90
00
00
ENDCHAR
STARTCHAR char38
ENCODING 38
SWIDTH 479 0
DWIDTH 5 0
BBX 5 10 0 0
BITMAP
00
40
A0
A0
40
B0
A0
70
00
00
ENDCHAR
STARTCHAR char39
ENCODING 39
SWIDTH 479 0
DWIDTH 5 0
BBX 5 10 0 0
BITMAP
40
40
80
00
00
00
00
00
00
00
ENDCHAR
STARTCHAR char40
ENCODING 40
SWIDTH 479 0
DWIDTH 5 0
BBX 5 10 0 0
BITMAP
30
40
80
80
80
80
80
40
30
00
ENDCHAR
STARTCHAR char41
ENCODING 41
SWIDTH 479 0
DWIDTH 5 0
BBX 5 10 0 0
BITMAP
C0
20
10
10
10
10
10
20
C0
00
ENDCHAR
STARTCHAR char42
ENCODING 42
SWIDTH 479 0
DWIDTH 5 0
BBX 5 10 0 0
BITMAP
00
00
90
60
F0
60
90
00
00
00
ENDCHAR
STARTCHAR char43
ENCODING 43
SWIDTH 479 0
DWIDTH 5 0
BBX 5 10 0 0
BITMAP
00
00
40
40
E0
40
40
00
00
00
ENDCHAR
STARTCHAR char44
ENCODING 44
SWIDTH 479 0
DWIDTH 5 0
BBX 5 10 0 0
BITMAP
00
00
00
00
00
00
40
40
80
00
ENDCHAR
STARTCHAR char45
ENCODING 45
SWIDTH 479 0
DWIDTH 5 0
BBX 5 10 0 0
BITMAP
00
00
00
00
F0
00
00
00
00
00
ENDCHAR
STARTCHAR char46
ENCODING 46
SWIDTH 479 0
DWIDTH 5 0
BBX 5 10 0 0
BITMAP
00
00
00
00
00
00
40
40
00
00
ENDCHAR
STARTCHAR char47
ENCODING 47
SWIDTH 479 0
DWIDTH 5 0
BBX 5 10 0 0
BITMAP
10
10
20
20
60
40
40
80
80
00
ENDCHAR
STARTCHAR char48
ENCODING 48
SWIDTH 479 0
DWIDTH 5 0
BBX 5 10 0 0
BITMAP
00
60
90
90
00
90
90
60
00
00
ENDCHAR
STARTCHAR char49
ENCODING 49
SWIDTH 479 0
DWIDTH 5 0
BBX 5 10 0 0
BITMAP
00
10
10
10
00
10
10
10
00
00
ENDCHAR
STARTCHAR char50
ENCODING 50
SWIDTH 479 0
DWIDTH 5 0
BBX 5 10 0 0
BITMAP
00
60
10
10
60
80
80
60
00
00
ENDCHAR
STARTCHAR char51
ENCODING 51
SWIDTH 479 0
DWIDTH 5 0
BBX 5 10 0 0
BITMAP
00
60
10
10
60
10
10
60
00
00
ENDCHAR
STARTCHAR char52
ENCODING 52
SWIDTH 479 0
DWIDTH 5 0
BBX 5 10 0 0
BITMAP
00
90
90
90
60
10
10
00
00
00
ENDCHAR
STARTCHAR char53
ENCODING 53
SWIDTH 479 0
DWIDTH 5 0
BBX 5 10 0 0
BITMAP
00
60
80
80
60
10
10
60
00
00
ENDCHAR
STARTCHAR char54
ENCODING 54
SWIDTH 479 0
DWIDTH 5 0
BBX 5 10 0 0
BITMAP
00
60
80
80
60
90
90
60
00
00
ENDCHAR
STARTCHAR char55
ENCODING 55
SWIDTH 479 0
DWIDTH 5 0
BBX 5 10 0 0
BITMAP
00
60
10
10
00
10
10
10
00
00
ENDCHAR
STARTCHAR char56
ENCODING 56
SWIDTH 479 0
DWIDTH 5 0
BBX 5 10 0 0
BITMAP
00
60
90
90
60
90
90
60
00
00
ENDCHAR
STARTCHAR char57
ENCODING 57
SWIDTH 479 0
DWIDTH 5 0
BBX 5 10 0 0
BITMAP
00
60
90
90
60
10
10
10
00
00
ENDCHAR
STARTCHAR char58
ENCODING 58
SWIDTH 479 0
DWIDTH 5 0
BBX 5 10 0 0
BITMAP
00
00
00
40
40
00
40
40
00
00
ENDCHAR
STARTCHAR char59
ENCODING 59
SWIDTH 479 0
DWIDTH 5 0
BBX 5 10 0 0
BITMAP
00
00
00
40
40
00
40
40
80
00
ENDCHAR
STARTCHAR char60
ENCODING 60
SWIDTH 479 0
DWIDTH 5 0
BBX 5 10 0 0
BITMAP
00
10
20
40
80
40
20
10
00
00
ENDCHAR
STARTCHAR char61
ENCODING 61
SWIDTH 479 0
DWIDTH 5 0
BBX 5 10 0 0
BITMAP
00
00
00
F0
00
F0
00
00
00
00
ENDCHAR
STARTCHAR char62
ENCODING 62
SWIDTH 479 0
DWIDTH 5 0
BBX 5 10 0 0
BITMAP
00
80
40
20
10
20
40
80
00
00
ENDCHAR
STARTCHAR char63
ENCODING 63
SWIDTH 479 0
DWIDTH 5 0
BBX 5 10 0 0
BITMAP
00
E0
10
10
60
40
00
40
00
00
ENDCHAR
STARTCHAR char64
ENCODING 64
SWIDTH 479 0
DWIDTH 5 0
BBX 5 10 0 0
BITMAP
00
60
90
90
D0
D0
10
60
00
00
ENDCHAR
STARTCHAR char65
ENCODING 65
SWIDTH 479 0
DWIDTH 5 0
BBX 5 10 0 0
BITMAP
C0
20
90
90
90
F0
90
90
00
00
ENDCHAR
STARTCHAR char66
ENCODING 66
SWIDTH 479 0
DWIDTH 5 0
BBX 5 10 0 0
BITMAP
C0
20
A0
E0
90
90
90
E0
00
00
ENDCHAR
STARTCHAR char67
ENCODING 67
SWIDTH 479 0
DWIDTH 5 0
BBX 5 10 0 0
BITMAP
30
40
80
80
80
80
80
70
00
00
ENDCHAR
STARTCHAR char68
ENCODING 68
SWIDTH 479 0
DWIDTH 5 0
BBX 5 10 0 0
BITMAP
C0
20
90
90
90
90
90
E0
00
00
ENDCHAR
STARTCHAR char69
ENCODING 69
SWIDTH 479 0
DWIDTH 5 0
BBX 5 10 0 0
BITMAP
F0
80
00
E0
80
80
80
F0
00
00
ENDCHAR
STARTCHAR char70
ENCODING 70
SWIDTH 479 0
DWIDTH 5 0
BBX 5 10 0 0
BITMAP
F0
80
00
E0
80
80
80
80
00
00
ENDCHAR
STARTCHAR char71
ENCODING 71
SWIDTH 479 0
DWIDTH 5 0
BBX 5 10 0 0
BITMAP
30
40
80
80
B0
80
90
70
00
00
ENDCHAR
STARTCHAR char72
ENCODING 72
SWIDTH 479 0
DWIDTH 5 0
BBX 5 10 0 0
BITMAP
90
90
10
F0
90
90
90
90
00
00
ENDCHAR
STARTCHAR char73
ENCODING 73
SWIDTH 479 0
DWIDTH 5 0
BBX 5 10 0 0
BITMAP
E0
00
40
40
40
40
40
E0
00
00
ENDCHAR
STARTCHAR char74
ENCODING 74
SWIDTH 479 0
DWIDTH 5 0
BBX 5 10 0 0
BITMAP
70
00
10
10
10
10
20
C0
00
00
ENDCHAR
STARTCHAR char75
ENCODING 75
SWIDTH 479 0
DWIDTH 5 0
BBX 5 10 0 0
BITMAP
80
90
20
C0
A0
90
90
90
00
00
ENDCHAR
STARTCHAR char76
ENCODING 76
SWIDTH 479 0
DWIDTH 5 0
BBX 5 10 0 0
BITMAP
80
80
80
80
80
80
80
F0
00
00
ENDCHAR
STARTCHAR char77
ENCODING 77
SWIDTH 479 0
DWIDTH 5 0
BBX 5 10 0 0
BITMAP
90
70
F0
B0
90
90
90
90
00
00
ENDCHAR
STARTCHAR char78
ENCODING 78
SWIDTH 479 0
DWIDTH 5 0
BBX 5 10 0 0
BITMAP
90
D0
D0
D0
B0
B0
B0
90
00
00
ENDCHAR
STARTCHAR char79
ENCODING 79
SWIDTH 479 0
DWIDTH 5 0
BBX 5 10 0 0
BITMAP
60
10
90
90
90
90
90
60
00
00
ENDCHAR
STARTCHAR char80
ENCODING 80
SWIDTH 479 0
DWIDTH 5 0
BBX 5 10 0 0
BITMAP
E0
10
10
E0
80
80
80
80
00
00
ENDCHAR
STARTCHAR char81
ENCODING 81
SWIDTH 479 0
DWIDTH 5 0
BBX 5 10 0 0
BITMAP
60
10
90
90
90
D0
B0
70
08
00
ENDCHAR
STARTCHAR char82
ENCODING 82
SWIDTH 479 0
DWIDTH 5 0
BBX 5 10 0 0
BITMAP
E0
10
10
E0
A0
90
90
90
00
00
ENDCHAR
STARTCHAR char83
ENCODING 83
SWIDTH 479 0
DWIDTH 5 0
BBX 5 10 0 0
BITMAP
F0
00
80
40
20
10
10
E0
00
00
ENDCHAR
STARTCHAR char84
ENCODING 84
SWIDTH 479 0
DWIDTH 5 0
BBX 5 10 0 0
BITMAP
F0
00
20
20
20
20
20
20
00
00
ENDCHAR
STARTCHAR char85
ENCODING 85
SWIDTH 479 0
DWIDTH 5 0
BBX 5 10 0 0
BITMAP
90
90
90
90
90
90
90
60
00
00
ENDCHAR
STARTCHAR char86
ENCODING 86
SWIDTH 479 0
DWIDTH 5 0
BBX 5 10 0 0
BITMAP
90
90
90
90
90
A0
C0
80
00
00
ENDCHAR
STARTCHAR char87
ENCODING 87
SWIDTH 479 0
DWIDTH 5 0
BBX 5 10 0 0
BITMAP
90
90
90
90
B0
F0
F0
90
00
00
ENDCHAR
STARTCHAR char88
ENCODING 88
SWIDTH 479 0
DWIDTH 5 0
BBX 5 10 0 0
BITMAP
90
90
10
60
60
90
90
90
00
00
ENDCHAR
STARTCHAR char89
ENCODING 89
SWIDTH 479 0
DWIDTH 5 0
BBX 5 10 0 0
BITMAP
90
90
90
50
30
10
10
10
00
00
ENDCHAR
STARTCHAR char90
ENCODING 90
SWIDTH 479 0
DWIDTH 5 0
BBX 5 10 0 0
BITMAP
F0
00
20
20
40
40
80
F0
00
00
ENDCHAR
STARTCHAR char91
ENCODING 91
SWIDTH 479 0
DWIDTH 5 0
BBX 5 10 0 0
BITMAP
F0
80
80
80
80
80
80
80
F0
00
ENDCHAR
STARTCHAR char92
ENCODING 92
SWIDTH 479 0
DWIDTH 5 0
BBX 5 10 0 0
BITMAP
80
80
40
40
60
20
20
10
10
00
ENDCHAR
STARTCHAR char93
ENCODING 93
SWIDTH 479 0
DWIDTH 5 0
BBX 5 10 0 0
BITMAP
F0
10
10
10
10
10
10
10
F0
00
ENDCHAR
STARTCHAR char94
ENCODING 94
SWIDTH 479 0
DWIDTH 5 0
BBX 5 10 0 0
BITMAP
40
A0
00
00
00
00
00
00
00
00
ENDCHAR
STARTCHAR char95
ENCODING 95
SWIDTH 479 0
DWIDTH 5 0
BBX 5 10 0 0
BITMAP
00
00
00
00
00
00
00
00
F8
00
ENDCHAR
STARTCHAR char96
ENCODING 96
SWIDTH 479 0
DWIDTH 5 0
BBX 5 10 0 0
BITMAP
40
40
20
00
00
00
00
00
00
00
ENDCHAR
STARTCHAR char97
ENCODING 97
SWIDTH 479 0
DWIDTH 5 0
BBX 5 10 0 0
BITMAP
00
00
00
50
B0
90
90
70
00
00
ENDCHAR
STARTCHAR char98
ENCODING 98
SWIDTH 479 0
DWIDTH 5 0
BBX 5 10 0 0
BITMAP
80
80
80
E0
90
90
90
E0
00
00
ENDCHAR
STARTCHAR char99
ENCODING 99
SWIDTH 479 0
DWIDTH 5 0
BBX 5 10 0 0
BITMAP
00
00
00
70
80
80
80
70
00
00
ENDCHAR
STARTCHAR char100
ENCODING 100
SWIDTH 479 0
DWIDTH 5 0
BBX 5 10 0 0
BITMAP
10
10
10
70
90
90
90
70
00
00
ENDCHAR
STARTCHAR char101
ENCODING 101
SWIDTH 479 0
DWIDTH 5 0
BBX 5 10 0 0
BITMAP
00
00
00
60
90
F0
80
70
00
00
ENDCHAR
STARTCHAR char102
ENCODING 102
SWIDTH 479 0
DWIDTH 5 0
BBX 5 10 0 0
BITMAP
30
40
40
F0
40
40
40
40
00
00
ENDCHAR
STARTCHAR char103
ENCODING 103
SWIDTH 479 0
DWIDTH 5 0
BBX 5 10 0 0
BITMAP
00
00
00
70
90
90
70
10
10
E0
ENDCHAR
STARTCHAR char104
ENCODING 104
SWIDTH 479 0
DWIDTH 5 0
BBX 5 10 0 0
BITMAP
80
80
80
E0
90
90
90
90
00
00
ENDCHAR
STARTCHAR char105
ENCODING 105
SWIDTH 479 0
DWIDTH 5 0
BBX 5 10 0 0
BITMAP
00
00
20
00
20
20
20
20
00
00
ENDCHAR
STARTCHAR char106
ENCODING 106
SWIDTH 479 0
DWIDTH 5 0
BBX 5 10 0 0
BITMAP
00
00
10
00
10
10
10
10
10
60
ENDCHAR
STARTCHAR char107
ENCODING 107
SWIDTH 479 0
DWIDTH 5 0
BBX 5 10 0 0
BITMAP
80
80
80
80
A0
C0
A0
90
00
00
ENDCHAR
STARTCHAR char108
ENCODING 108
SWIDTH 479 0
DWIDTH 5 0
BBX 5 10 0 0
BITMAP
60
20
20
20
20
20
20
70
00
00
ENDCHAR
STARTCHAR char109
ENCODING 109
SWIDTH 479 0
DWIDTH 5 0
BBX 5 10 0 0
BITMAP
00
00
00
90
F0
B0
90
90
00
00
ENDCHAR
STARTCHAR char110
ENCODING 110
SWIDTH 479 0
DWIDTH 5 0
BBX 5 10 0 0
BITMAP
00
00
00
E0
90
90
90
90
00
00
ENDCHAR
STARTCHAR char111
ENCODING 111
SWIDTH 479 0
DWIDTH 5 0
BBX 5 10 0 0
BITMAP
00
00
00
60
90
90
90
60
00
00
ENDCHAR
STARTCHAR char112
ENCODING 112
SWIDTH 479 0
DWIDTH 5 0
BBX 5 10 0 0
BITMAP
00
00
00
E0
90
90
90
E0
80
80
ENDCHAR
STARTCHAR char113
ENCODING 113
SWIDTH 479 0
DWIDTH 5 0
BBX 5 10 0 0
BITMAP
00
00
00
70
90
90
90
70
10
10
ENDCHAR
STARTCHAR char114
ENCODING 114
SWIDTH 479 0
DWIDTH 5 0
BBX 5 10 0 0
BITMAP
00
00
00
B0
C0
80
80
80
00
00
ENDCHAR
STARTCHAR char115
ENCODING 115
SWIDTH 479 0
DWIDTH 5 0
BBX 5 10 0 0
BITMAP
00
00
00
70
80
60
10
E0
00
00
ENDCHAR
STARTCHAR char116
ENCODING 116
SWIDTH 479 0
DWIDTH 5 0
BBX 5 10 0 0
BITMAP
20
20
20
F0
20
20
20
20
00
00
ENDCHAR
STARTCHAR char117
ENCODING 117
SWIDTH 479 0
DWIDTH 5 0
BBX 5 10 0 0
BITMAP
00
00
00
90
90
90
90
60
00
00
ENDCHAR
STARTCHAR char118
ENCODING 118
SWIDTH 479 0
DWIDTH 5 0
BBX 5 10 0 0
BITMAP
00
00
00
90
90
A0
C0
80
00
00
ENDCHAR
STARTCHAR char119
ENCODING 119
SWIDTH 479 0
DWIDTH 5 0
BBX 5 10 0 0
BITMAP
00
00
00
90
90
B0
F0
90
00
00
ENDCHAR
STARTCHAR char120
ENCODING 120
SWIDTH 479 0
DWIDTH 5 0
BBX 5 10 0 0
BITMAP
00
00
00
90
90
60
90
90
00
00
ENDCHAR
STARTCHAR char121
ENCODING 121
SWIDTH 479 0
DWIDTH 5 0
BBX 5 10 0 0
BITMAP
00
00
00
90
90
90
90
70
10
E0
ENDCHAR
STARTCHAR char122
ENCODING 122
SWIDTH 479 0
DWIDTH 5 0
BBX 5 10 0 0
BITMAP
00
00
00
F0
10
60
80
F0
00
00
ENDCHAR
STARTCHAR char123
ENCODING 123
SWIDTH 479 0
DWIDTH 5 0
BBX 5 10 0 0
BITMAP
30
40
40
40
80
40
40
40
30
00
ENDCHAR
STARTCHAR char124
ENCODING 124
SWIDTH 479 0
DWIDTH 5 0
BBX 5 10 0 0
BITMAP
20
20
20
20
00
20
20
20
20
00
ENDCHAR
STARTCHAR char125
ENCODING 125
SWIDTH 479 0
DWIDTH 5 0
BBX 5 10 0 0
BITMAP
C0
20
20
20
10
20
20
20
C0
00
ENDCHAR
STARTCHAR char126
ENCODING 126
SWIDTH 479 0
DWIDTH 5 0
BBX 5 10 0 0
BITMAP
50
A0
80
00
00
00
00
00
00
00
ENDCHAR
STARTCHAR char127
ENCODING 127
SWIDTH 479 0
DWIDTH 5 0
BBX 5 10 0 0
BITMAP
00
00
60
60
60
90
90
90
F0
00
ENDCHAR
STARTCHAR char128
ENCODING 128
SWIDTH 479 0
DWIDTH 5 0
BBX 5 10 0 0
BITMAP
00
30
48
B0
A8
A0
A0
A0
E0
00
ENDCHAR
STARTCHAR char129
ENCODING 129
SWIDTH 479 0
DWIDTH 5 0
BBX 5 10 0 0
BITMAP
00
08
08
88
48
A8
58
20
18
00
ENDCHAR
STARTCHAR char130
ENCODING 130
SWIDTH 479 0
DWIDTH 5 0
BBX 5 10 0 0
BITMAP
00
C0
40
40
40
40
40
80
00
00
ENDCHAR
STARTCHAR char131
ENCODING 131
SWIDTH 479 0
DWIDTH 5 0
BBX 5 10 0 0
BITMAP
00
38
40
B8
80
B8
B8
40
38
00
ENDCHAR
STARTCHAR char132
ENCODING 132
SWIDTH 479 0
DWIDTH 5 0
BBX 5 10 0 0
BITMAP
00
F8
00
F8
20
E0
F8
00
F8
00
ENDCHAR
STARTCHAR char133
ENCODING 133
SWIDTH 479 0
DWIDTH 5 0
BBX 5 10 0 0
BITMAP
00
C0
40
C0
00
00
C0
40
C0
00
ENDCHAR
STARTCHAR char134
ENCODING 134
SWIDTH 479 0
DWIDTH 5 0
BBX 5 10 0 0
BITMAP
00
E0
B8
40
38
38
40
B8
E0
00
ENDCHAR
STARTCHAR char135
ENCODING 135
SWIDTH 479 0
DWIDTH 5 0
BBX 5 10 0 0
BITMAP
00
00
00
F8
00
00
F8
00
00
00
ENDCHAR
STARTCHAR char136
ENCODING 136
SWIDTH 479 0
DWIDTH 5 0
BBX 5 10 0 0
BITMAP
00
18
70
88
70
70
88
70
18
00
ENDCHAR
STARTCHAR char137
ENCODING 137
SWIDTH 479 0
DWIDTH 5 0
BBX 5 10 0 0
BITMAP
00
80
80
00
00
00
00
80
80
00
ENDCHAR
STARTCHAR char138
ENCODING 138
SWIDTH 479 0
DWIDTH 5 0
BBX 5 10 0 0
BITMAP
00
E0
A0
A0
A0
A0
B8
40
38
00
ENDCHAR
STARTCHAR char139
ENCODING 139
SWIDTH 479 0
DWIDTH 5 0
BBX 5 10 0 0
BITMAP
00
08
08
08
08
08
F8
00
F8
00
ENDCHAR
STARTCHAR char140
ENCODING 140
SWIDTH 479 0
DWIDTH 5 0
BBX 5 10 0 0
BITMAP
00
C0
40
40
40
40
40
80
00
00
ENDCHAR
STARTCHAR char141
ENCODING 141
SWIDTH 479 0
DWIDTH 5 0
BBX 5 10 0 0
BITMAP
00
78
80
B8
80
78
F8
80
F8
00
ENDCHAR
STARTCHAR char142
ENCODING 142
SWIDTH 479 0
DWIDTH 5 0
BBX 5 10 0 0
BITMAP
00
F8
00
F8
00
F8
F8
00
F8
00
ENDCHAR
STARTCHAR char143
ENCODING 143
SWIDTH 479 0
DWIDTH 5 0
BBX 5 10 0 0
BITMAP
00
C0
40
C0
80
40
40
40
80
00
ENDCHAR
STARTCHAR char144
ENCODING 144
SWIDTH 479 0
DWIDTH 5 0
BBX 5 10 0 0
BITMAP
00
20
70
70
60
68
60
F8
F8
68
ENDCHAR
STARTCHAR char145
ENCODING 145
SWIDTH 479 0
DWIDTH 5 0
BBX 5 10 0 0
BITMAP
00
C0
18
D8
D0
90
40
F0
C0
80
ENDCHAR
STARTCHAR char146
ENCODING 146
SWIDTH 479 0
DWIDTH 5 0
BBX 5 10 0 0
BITMAP
18
08
20
A8
B8
B0
00
08
18
00
ENDCHAR
STARTCHAR char147
ENCODING 147
SWIDTH 479 0
DWIDTH 5 0
BBX 5 10 0 0
BITMAP
08
D8
F0
70
70
F8
D8
D8
00
00
ENDCHAR
STARTCHAR char148
ENCODING 148
SWIDTH 479 0
DWIDTH 5 0
BBX 5 10 0 0
BITMAP
F8
88
88
88
88
88
88
88
88
F8
ENDCHAR
STARTCHAR char149
ENCODING 149
SWIDTH 479 0
DWIDTH 5 0
BBX 5 10 0 0
BITMAP
F8
88
88
88
88
88
88
88
88
F8
ENDCHAR
STARTCHAR char150
ENCODING 150
SWIDTH 479 0
DWIDTH 5 0
BBX 5 10 0 0
BITMAP
F8
88
88
88
88
88
88
88
88
F8
ENDCHAR
STARTCHAR char151
ENCODING 151
SWIDTH 479 0
DWIDTH 5 0
BBX 5 10 0 0
BITMAP
F8
88
88
88
88
88
88
88
88
F8
ENDCHAR
STARTCHAR char152
ENCODING 152
SWIDTH 479 0
DWIDTH 5 0
BBX 5 10 0 0
BITMAP
F8
88
88
88
88
88
88
88
88
F8
ENDCHAR
STARTCHAR char153
ENCODING 153
SWIDTH 479 0
DWIDTH 5 0
BBX 5 10 0 0
BITMAP
F8
88
88
88
88
88
88
88
88
F8
ENDCHAR
STARTCHAR char154
ENCODING 154
SWIDTH 479 0
DWIDTH 5 0
BBX 5 10 0 0
BITMAP
F8
88
88
88
88
88
88
88
88
F8
ENDCHAR
STARTCHAR char155
ENCODING 155
SWIDTH 479 0
DWIDTH 5 0
BBX 5 10 0 0
BITMAP
00
20
20
70
80
80
80
70
20
20
ENDCHAR
STARTCHAR char156
ENCODING 156
SWIDTH 479 0
DWIDTH 5 0
BBX 5 10 0 0
BITMAP
00
00
20
50
40
60
40
E0
D0
00
ENDCHAR
STARTCHAR char157
ENCODING 157
SWIDTH 479 0
DWIDTH 5 0
BBX 5 10 0 0
BITMAP
00
A0
A0
A0
40
E0
40
E0
40
00
ENDCHAR
STARTCHAR char158
ENCODING 158
SWIDTH 479 0
DWIDTH 5 0
BBX 5 10 0 0
BITMAP
F8
88
88
88
88
88
88
88
88
F8
ENDCHAR
STARTCHAR char159
ENCODING 159
SWIDTH 479 0
DWIDTH 5 0
BBX 5 10 0 0
BITMAP
10
28
20
20
70
20
20
20
A0
40
ENDCHAR
STARTCHAR char160
ENCODING 160
SWIDTH 479 0
DWIDTH 5 0
BBX 5 10 0 0
BITMAP
F8
88
88
88
88
88
88
88
88
F8
ENDCHAR
STARTCHAR char161
ENCODING 161
SWIDTH 479 0
DWIDTH 5 0
BBX 5 10 0 0
BITMAP
F8
88
88
88
88
88
88
88
88
F8
ENDCHAR
STARTCHAR char162
ENCODING 162
SWIDTH 479 0
DWIDTH 5 0
BBX 5 10 0 0
BITMAP
F8
88
88
88
88
88
88
88
88
F8
ENDCHAR
STARTCHAR char101
ENCODING 163
SWIDTH 479 0
DWIDTH 5 0
BBX 5 10 0 0
BITMAP
00
90
00
60
90
F0
80
70
00
00
ENDCHAR
STARTCHAR char164
ENCODING 164
SWIDTH 479 0
DWIDTH 5 0
BBX 5 10 0 0
BITMAP
F8
88
88
88
88
88
88
88
88
F8
ENDCHAR
STARTCHAR char165
ENCODING 165
SWIDTH 479 0
DWIDTH 5 0
BBX 5 10 0 0
BITMAP
F8
88
88
88
88
88
88
88
88
F8
ENDCHAR
STARTCHAR char166
ENCODING 166
SWIDTH 479 0
DWIDTH 5 0
BBX 5 10 0 0
BITMAP
00
00
70
90
90
70
00
F0
00
00
ENDCHAR
STARTCHAR char167
ENCODING 167
SWIDTH 479 0
DWIDTH 5 0
BBX 5 10 0 0
BITMAP
00
00
60
90
90
60
00
F0
00
00
ENDCHAR
STARTCHAR char168
ENCODING 168
SWIDTH 479 0
DWIDTH 5 0
BBX 5 10 0 0
BITMAP
00
20
00
20
60
80
80
70
00
00
ENDCHAR
STARTCHAR char169
ENCODING 169
SWIDTH 479 0
DWIDTH 5 0
BBX 5 10 0 0
BITMAP
00
00
00
00
00
F0
80
80
00
00
ENDCHAR
STARTCHAR char170
ENCODING 170
SWIDTH 479 0
DWIDTH 5 0
BBX 5 10 0 0
BITMAP
00
00
00
00
00
F0
10
10
00
00
ENDCHAR
STARTCHAR char171
ENCODING 171
SWIDTH 479 0
DWIDTH 5 0
BBX 5 10 0 0
BITMAP
80
80
90
A0
40
B0
10
20
30
00
ENDCHAR
STARTCHAR char172
ENCODING 172
SWIDTH 479 0
DWIDTH 5 0
BBX 5 10 0 0
BITMAP
80
80
90
A0
40
90
50
70
10
00
ENDCHAR
STARTCHAR char173
ENCODING 173
SWIDTH 479 0
DWIDTH 5 0
BBX 5 10 0 0
BITMAP
40
40
00
40
40
40
40
40
00
00
ENDCHAR
STARTCHAR char174
ENCODING 174
SWIDTH 479 0
DWIDTH 5 0
BBX 5 10 0 0
BITMAP
00
00
00
00
50
A0
50
00
00
00
ENDCHAR
STARTCHAR char175
ENCODING 175
SWIDTH 479 0
DWIDTH 5 0
BBX 5 10 0 0
BITMAP
00
00
00
00
A0
50
A0
00
00
00
ENDCHAR
STARTCHAR char176
ENCODING 176
SWIDTH 479 0
DWIDTH 5 0
BBX 5 10 0 0
BITMAP
80
28
40
10
80
28
40
10
80
28
ENDCHAR
STARTCHAR char177
ENCODING 177
SWIDTH 479 0
DWIDTH 5 0
BBX 5 10 0 0
BITMAP
50
A8
50
A8
50
A8
50
A8
50
A8
ENDCHAR
STARTCHAR char178
ENCODING 178
SWIDTH 479 0
DWIDTH 5 0
BBX 5 10 0 0
BITMAP
F0
78
A8
78
D8
A8
F8
F8
B0
E8
ENDCHAR
STARTCHAR char69
ENCODING 179
SWIDTH 479 0
DWIDTH 5 0
BBX 5 10 0 0
BITMAP
F0
80
00
E0
80
80
80
F0
00
00
ENDCHAR
STARTCHAR char180
ENCODING 180
SWIDTH 479 0
DWIDTH 5 0
BBX 5 10 0 0
BITMAP
20
20
20
20
20
E0
20
20
20
20
ENDCHAR
STARTCHAR char181
ENCODING 181
SWIDTH 479 0
DWIDTH 5 0
BBX 5 10 0 0
BITMAP
20
20
20
E0
20
E0
20
20
20
20
ENDCHAR
STARTCHAR char182
ENCODING 182
SWIDTH 479 0
DWIDTH 5 0
BBX 5 10 0 0
BITMAP
50
50
50
50
50
D0
50
50
50
50
ENDCHAR
STARTCHAR char183
ENCODING 183
SWIDTH 479 0
DWIDTH 5 0
BBX 5 10 0 0
BITMAP
00
00
00
00
00
F0
50
50
50
50
ENDCHAR
STARTCHAR char184
ENCODING 184
SWIDTH 479 0
DWIDTH 5 0
BBX 5 10 0 0
BITMAP
00
00
00
E0
20
E0
20
20
20
20
ENDCHAR
STARTCHAR char185
ENCODING 185
SWIDTH 479 0
DWIDTH 5 0
BBX 5 10 0 0
BITMAP
50
50
50
D0
10
D0
50
50
50
50
ENDCHAR
STARTCHAR char186
ENCODING 186
SWIDTH 479 0
DWIDTH 5 0
BBX 5 10 0 0
BITMAP
50
50
50
50
50
50
50
50
50
50
ENDCHAR
STARTCHAR char187
ENCODING 187
SWIDTH 479 0
DWIDTH 5 0
BBX 5 10 0 0
BITMAP
00
00
00
F0
10
D0
50
50
50
50
ENDCHAR
STARTCHAR char188
ENCODING 188
SWIDTH 479 0
DWIDTH 5 0
BBX 5 10 0 0
BITMAP
50
50
50
D0
10
F0
00
00
00
00
ENDCHAR
STARTCHAR char189
ENCODING 189
SWIDTH 479 0
DWIDTH 5 0
BBX 5 10 0 0
BITMAP
50
50
50
50
50
F0
00
00
00
00
ENDCHAR
STARTCHAR char190
ENCODING 190
SWIDTH 479 0
DWIDTH 5 0
BBX 5 10 0 0
BITMAP
20
20
20
E0
20
E0
00
00
00
00
ENDCHAR
STARTCHAR char191
ENCODING 191
SWIDTH 479 0
DWIDTH 5 0
BBX 5 10 0 0
BITMAP
00
00
00
00
00
E0
20
20
20
20
ENDCHAR
STARTCHAR char111
ENCODING 192
SWIDTH 479 0
DWIDTH 5 0
BBX 5 10 0 0
BITMAP
00
00
00
90
A8
E8
A8
90
00
00
ENDCHAR
STARTCHAR char97
ENCODING 193
SWIDTH 479 0
DWIDTH 5 0
BBX 5 10 0 0
BITMAP
00
00
00
50
B0
90
90
70
00
00
ENDCHAR
STARTCHAR char98
ENCODING 194
SWIDTH 479 0
DWIDTH 5 0
BBX 5 10 0 0
BITMAP
50
A0
80
60
90
90
90
60
00
00
ENDCHAR
STARTCHAR char117
ENCODING 195
SWIDTH 479 0
DWIDTH 5 0
BBX 5 10 0 0
BITMAP
00
00
00
90
90
90
90
78
08
00
ENDCHAR
STARTCHAR char103
ENCODING 196
SWIDTH 479 0
DWIDTH 5 0
BBX 5 10 0 0
BITMAP
00
00
00
70
90
90
70
10
10
E0
ENDCHAR
STARTCHAR char101
ENCODING 197
SWIDTH 479 0
DWIDTH 5 0
BBX 5 10 0 0
BITMAP
00
00
00
60
90
F0
80
70
00
00
ENDCHAR
STARTCHAR char97
ENCODING 198
SWIDTH 479 0
DWIDTH 5 0
BBX 5 10 0 0
BITMAP
00
00
00
50
A8
A8
A8
70
20
20
ENDCHAR
STARTCHAR char120
ENCODING 199
SWIDTH 479 0
DWIDTH 5 0
BBX 5 10 0 0
BITMAP
00
00
00
F0
80
80
80
80
00
00
ENDCHAR
STARTCHAR char120
ENCODING 200
SWIDTH 479 0
DWIDTH 5 0
BBX 5 10 0 0
BITMAP
00
00
00
90
90
60
90
90
00
00
ENDCHAR
STARTCHAR char117
ENCODING 201
SWIDTH 479 0
DWIDTH 5 0
BBX 5 10 0 0
BITMAP
00
00
00
90
90
90
90
70
00
00
ENDCHAR
STARTCHAR char117
ENCODING 202
SWIDTH 479 0
DWIDTH 5 0
BBX 5 10 0 0
BITMAP
00
60
00
90
90
90
90
70
00
00
ENDCHAR
STARTCHAR char107
ENCODING 203
SWIDTH 479 0
DWIDTH 5 0
BBX 5 10 0 0
BITMAP
00
00
00
90
A0
C0
A0
90
00
00
ENDCHAR
STARTCHAR char120
ENCODING 204
SWIDTH 479 0
DWIDTH 5 0
BBX 5 10 0 0
BITMAP
00
00
00
30
50
90
90
90
00
00
ENDCHAR
STARTCHAR char109
ENCODING 205
SWIDTH 479 0
DWIDTH 5 0
BBX 5 10 0 0
BITMAP
00
00
00
90
F0
B0
90
90
00
00
ENDCHAR
STARTCHAR char120
ENCODING 206
SWIDTH 479 0
DWIDTH 5 0
BBX 5 10 0 0
BITMAP
00
00
00
90
90
F0
90
90
00
00
ENDCHAR
STARTCHAR char111
ENCODING 207
SWIDTH 479 0
DWIDTH 5 0
BBX 5 10 0 0
BITMAP
00
00
00
60
90
90
90
60
00
00
ENDCHAR
STARTCHAR char110
ENCODING 208
SWIDTH 479 0
DWIDTH 5 0
BBX 5 10 0 0
BITMAP
00
00
00
E0
90
90
90
90
00
00
ENDCHAR
STARTCHAR char99
ENCODING 209
SWIDTH 479 0
DWIDTH 5 0
BBX 5 10 0 0
BITMAP
00
00
00
E0
90
70
50
90
80
00
ENDCHAR
STARTCHAR char112
ENCODING 210
SWIDTH 479 0
DWIDTH 5 0
BBX 5 10 0 0
BITMAP
00
00
00
E0
90
90
90
E0
80
80
ENDCHAR
STARTCHAR char99
ENCODING 211
SWIDTH 479 0
DWIDTH 5 0
BBX 5 10 0 0
BITMAP
00
00
00
70
80
80
80
70
00
00
ENDCHAR
STARTCHAR char97
ENCODING 212
SWIDTH 479 0
DWIDTH 5 0
BBX 5 10 0 0
BITMAP
00
00
00
F8
20
20
20
20
00
00
ENDCHAR
STARTCHAR char121
ENCODING 213
SWIDTH 479 0
DWIDTH 5 0
BBX 5 10 0 0
BITMAP
00
00
00
90
90
90
90
70
10
E0
ENDCHAR
STARTCHAR char120
ENCODING 214
SWIDTH 479 0
DWIDTH 5 0
BBX 5 10 0 0
BITMAP
00
00
00
A8
A8
70
A8
A8
00
00
ENDCHAR
STARTCHAR char98
ENCODING 215
SWIDTH 479 0
DWIDTH 5 0
BBX 5 10 0 0
BITMAP
00
00
40
A0
A0
D0
90
60
00
00
ENDCHAR
STARTCHAR char98
ENCODING 216
SWIDTH 479 0
DWIDTH 5 0
BBX 5 10 0 0
BITMAP
00
00
00
80
A0
D0
90
60
00
00
ENDCHAR
STARTCHAR char98
ENCODING 217
SWIDTH 479 0
DWIDTH 5 0
BBX 5 10 0 0
BITMAP
00
00
00
88
A8
D8
98
68
00
00
ENDCHAR
STARTCHAR char99
ENCODING 218
SWIDTH 479 0
DWIDTH 5 0
BBX 5 10 0 0
BITMAP
00
00
00
60
10
60
10
10
10
60
ENDCHAR
STARTCHAR char120
ENCODING 219
SWIDTH 479 0
DWIDTH 5 0
BBX 5 10 0 0
BITMAP
00
00
00
88
A8
A8
A8
F8
00
00
ENDCHAR
STARTCHAR char99
ENCODING 220
SWIDTH 479 0
DWIDTH 5 0
BBX 5 10 0 0
BITMAP
00
00
00
E0
10
70
10
E0
00
00
ENDCHAR
STARTCHAR char120
ENCODING 221
SWIDTH 479 0
DWIDTH 5 0
BBX 5 10 0 0
BITMAP
00
00
00
88
A8
A8
A8
F8
08
08
ENDCHAR
STARTCHAR char99
ENCODING 222
SWIDTH 479 0
DWIDTH 5 0
BBX 5 10 0 0
BITMAP
00
00
00
90
90
70
10
10
00
00
ENDCHAR
STARTCHAR char98
ENCODING 223
SWIDTH 479 0
DWIDTH 5 0
BBX 5 10 0 0
BITMAP
00
00
C0
40
70
48
48
30
00
00
ENDCHAR
STARTCHAR char79
ENCODING 224
SWIDTH 479 0
DWIDTH 5 0
BBX 5 10 0 0
BITMAP
90
28
A8
A8
E8
A8
A8
90
00
00
ENDCHAR
STARTCHAR char65
ENCODING 225
SWIDTH 479 0
DWIDTH 5 0
BBX 5 10 0 0
BITMAP
C0
20
90
90
90
F0
90
90
00
00
ENDCHAR
STARTCHAR char66
ENCODING 226
SWIDTH 479 0
DWIDTH 5 0
BBX 5 10 0 0
BITMAP
E0
00
80
E0
90
90
90
E0
00
00
ENDCHAR
STARTCHAR char72
ENCODING 227
SWIDTH 479 0
DWIDTH 5 0
BBX 5 10 0 0
BITMAP
90
90
10
90
90
90
90
F8
08
00
ENDCHAR
STARTCHAR char68
ENCODING 228
SWIDTH 479 0
DWIDTH 5 0
BBX 5 10 0 0
BITMAP
18
20
48
48
48
48
48
F8
80
00
ENDCHAR
STARTCHAR char69
ENCODING 229
SWIDTH 479 0
DWIDTH 5 0
BBX 5 10 0 0
BITMAP
F0
80
00
E0
80
80
80
F0
00
00
ENDCHAR
STARTCHAR char80
ENCODING 230
SWIDTH 479 0
DWIDTH 5 0
BBX 5 10 0 0
BITMAP
70
28
A8
A8
70
20
20
20
00
00
ENDCHAR
STARTCHAR char85
ENCODING 231
SWIDTH 479 0
DWIDTH 5 0
BBX 5 10 0 0
BITMAP
F0
80
80
80
80
80
80
80
00
00
ENDCHAR
STARTCHAR char88
ENCODING 232
SWIDTH 479 0
DWIDTH 5 0
BBX 5 10 0 0
BITMAP
90
90
10
60
60
90
90
90
00
00
ENDCHAR
STARTCHAR char78
ENCODING 233
SWIDTH 479 0
DWIDTH 5 0
BBX 5 10 0 0
BITMAP
90
B0
B0
B0
D0
D0
D0
90
00
00
ENDCHAR
STARTCHAR char78
ENCODING 234
SWIDTH 479 0
DWIDTH 5 0
BBX 5 10 0 0
BITMAP
20
80
B0
B0
D0
D0
D0
90
00
00
ENDCHAR
STARTCHAR char75
ENCODING 235
SWIDTH 479 0
DWIDTH 5 0
BBX 5 10 0 0
BITMAP
80
90
20
C0
A0
90
90
90
00
00
ENDCHAR
STARTCHAR char65
ENCODING 236
SWIDTH 479 0
DWIDTH 5 0
BBX 5 10 0 0
BITMAP
30
40
90
90
90
90
90
90
00
00
ENDCHAR
STARTCHAR char77
ENCODING 237
SWIDTH 479 0
DWIDTH 5 0
BBX 5 10 0 0
BITMAP
90
70
F0
B0
90
90
90
90
00
00
ENDCHAR
STARTCHAR char72
ENCODING 238
SWIDTH 479 0
DWIDTH 5 0
BBX 5 10 0 0
BITMAP
90
90
10
F0
90
90
90
90
00
00
ENDCHAR
STARTCHAR char79
ENCODING 239
SWIDTH 479 0
DWIDTH 5 0
BBX 5 10 0 0
BITMAP
60
10
90
90
90
90
90
60
00
00
ENDCHAR
STARTCHAR char85
ENCODING 240
SWIDTH 479 0
DWIDTH 5 0
BBX 5 10 0 0
BITMAP
F0
80
90
90
90
90
90
90
00
00
ENDCHAR
STARTCHAR char82
ENCODING 241
SWIDTH 479 0
DWIDTH 5 0
BBX 5 10 0 0
BITMAP
70
80
80
70
50
90
90
90
00
00
ENDCHAR
STARTCHAR char80
ENCODING 242
SWIDTH 479 0
DWIDTH 5 0
BBX 5 10 0 0
BITMAP
E0
10
10
E0
80
80
80
80
00
00
ENDCHAR
STARTCHAR char67
ENCODING 243
SWIDTH 479 0
DWIDTH 5 0
BBX 5 10 0 0
BITMAP
30
40
80
80
80
80
80
70
00
00
ENDCHAR
STARTCHAR char84
ENCODING 244
SWIDTH 479 0
DWIDTH 5 0
BBX 5 10 0 0
BITMAP
F0
00
20
20
20
20
20
20
00
00
ENDCHAR
STARTCHAR char89
ENCODING 245
SWIDTH 479 0
DWIDTH 5 0
BBX 5 10 0 0
BITMAP
90
90
90
50
30
20
40
40
00
00
ENDCHAR
STARTCHAR char88
ENCODING 246
SWIDTH 479 0
DWIDTH 5 0
BBX 5 10 0 0
BITMAP
A8
A8
28
70
70
A8
A8
A8
00
00
ENDCHAR
STARTCHAR char66
ENCODING 247
SWIDTH 479 0
DWIDTH 5 0
BBX 5 10 0 0
BITMAP
C0
20
A0
E0
90
90
90
E0
00
00
ENDCHAR
STARTCHAR char66
ENCODING 248
SWIDTH 479 0
DWIDTH 5 0
BBX 5 10 0 0
BITMAP
80
80
80
E0
90
90
90
E0
00
00
ENDCHAR
STARTCHAR char66
ENCODING 249
SWIDTH 479 0
DWIDTH 5 0
BBX 5 10 0 0
BITMAP
88
08
88
C8
A8
A8
A8
C8
00
00
ENDCHAR
STARTCHAR char66
ENCODING 250
SWIDTH 479 0
DWIDTH 5 0
BBX 5 10 0 0
BITMAP
C0
20
20
60
10
10
10
E0
00
00
ENDCHAR
STARTCHAR char72
ENCODING 251
SWIDTH 479 0
DWIDTH 5 0
BBX 5 10 0 0
BITMAP
88
88
08
A8
A8
A8
A8
F8
00
00
ENDCHAR
STARTCHAR char67
ENCODING 252
SWIDTH 479 0
DWIDTH 5 0
BBX 5 10 0 0
BITMAP
E0
10
10
70
10
10
20
C0
00
00
ENDCHAR
STARTCHAR char72
ENCODING 253
SWIDTH 479 0
DWIDTH 5 0
BBX 5 10 0 0
BITMAP
90
90
10
B0
B0
B0
B0
F8
08
00
ENDCHAR
STARTCHAR char89
ENCODING 254
SWIDTH 479 0
DWIDTH 5 0
BBX 5 10 0 0
BITMAP
90
90
90
50
30
10
10
10
00
00
ENDCHAR
STARTCHAR char66
ENCODING 255
SWIDTH 479 0
DWIDTH 5 0
BBX 5 10 0 0
BITMAP
C0
40
40
70
48
48
48
70
00
00
ENDCHAR
ENDFONT
